TITLE ""
FILE "1Q_j_2277-2290.mp3" MP3
  TRACK 01 AUDIO
    TITLE "1Q_j_2277-2290_01"
    INDEX 01 00:00:00
  TRACK 02 AUDIO
    TITLE "1Q_j_2277-2290_02"
    INDEX 01 00:01:25
  TRACK 03 AUDIO
    TITLE "1Q_j_2277-2290_03"
    INDEX 01 00:01:35
  TRACK 04 AUDIO
    TITLE "1Q_j_2277-2290_04"
    INDEX 01 00:03:52
  TRACK 05 AUDIO
    TITLE "1Q_j_2277-2290_05"
    INDEX 01 00:03:60
  TRACK 06 AUDIO
    TITLE "1Q_j_2277-2290_06"
    INDEX 01 00:09:35
  TRACK 07 AUDIO
    TITLE "1Q_j_2277-2290_07"
    INDEX 01 00:10:05
  TRACK 08 AUDIO
    TITLE "1Q_j_2277-2290_08"
    INDEX 01 00:11:08
  TRACK 09 AUDIO
    TITLE "1Q_j_2277-2290_09"
    INDEX 01 00:11:24
  TRACK 10 AUDIO
    TITLE "1Q_j_2277-2290_10"
    INDEX 01 00:14:48
  TRACK 11 AUDIO
    TITLE "1Q_j_2277-2290_11"
    INDEX 01 00:14:57
  TRACK 12 AUDIO
    TITLE "1Q_j_2277-2290_12"
    INDEX 01 00:20:60
  TRACK 13 AUDIO
    TITLE "1Q_j_2277-2290_13"
    INDEX 01 00:21:32
  TRACK 14 AUDIO
    TITLE "1Q_j_2277-2290_14"
    INDEX 01 00:22:53
  TRACK 15 AUDIO
    TITLE "1Q_j_2277-2290_15"
    INDEX 01 00:22:61
  TRACK 16 AUDIO
    TITLE "1Q_j_2277-2290_16"
    INDEX 01 00:24:50
  TRACK 17 AUDIO
    TITLE "1Q_j_2277-2290_17"
    INDEX 01 00:24:60
  TRACK 18 AUDIO
    TITLE "1Q_j_2277-2290_18"
    INDEX 01 00:28:54
  TRACK 19 AUDIO
    TITLE "1Q_j_2277-2290_19"
    INDEX 01 00:29:24
  TRACK 20 AUDIO
    TITLE "1Q_j_2277-2290_20"
    INDEX 01 00:30:51
  TRACK 21 AUDIO
    TITLE "1Q_j_2277-2290_21"
    INDEX 01 00:30:58
  TRACK 22 AUDIO
    TITLE "1Q_j_2277-2290_22"
    INDEX 01 00:32:61
  TRACK 23 AUDIO
    TITLE "1Q_j_2277-2290_23"
    INDEX 01 00:32:69
  TRACK 24 AUDIO
    TITLE "1Q_j_2277-2290_24"
    INDEX 01 00:36:65
  TRACK 25 AUDIO
    TITLE "1Q_j_2277-2290_25"
    INDEX 01 00:37:35
  TRACK 26 AUDIO
    TITLE "1Q_j_2277-2290_26"
    INDEX 01 00:38:44
  TRACK 27 AUDIO
    TITLE "1Q_j_2277-2290_27"
    INDEX 01 00:38:52
  TRACK 28 AUDIO
    TITLE "1Q_j_2277-2290_28"
    INDEX 01 00:40:04
  TRACK 29 AUDIO
    TITLE "1Q_j_2277-2290_29"
    INDEX 01 00:40:10
  TRACK 30 AUDIO
    TITLE "1Q_j_2277-2290_30"
    INDEX 01 00:45:64
  TRACK 31 AUDIO
    TITLE "1Q_j_2277-2290_31"
    INDEX 01 00:46:34
  TRACK 32 AUDIO
    TITLE "1Q_j_2277-2290_32"
    INDEX 01 00:47:55
  TRACK 33 AUDIO
    TITLE "1Q_j_2277-2290_33"
    INDEX 01 00:47:65
  TRACK 34 AUDIO
    TITLE "1Q_j_2277-2290_34"
    INDEX 01 00:49:54
  TRACK 35 AUDIO
    TITLE "1Q_j_2277-2290_35"
    INDEX 01 00:49:60
  TRACK 36 AUDIO
    TITLE "1Q_j_2277-2290_36"
    INDEX 01 00:54:53
  TRACK 37 AUDIO
    TITLE "1Q_j_2277-2290_37"
    INDEX 01 00:55:25
  TRACK 38 AUDIO
    TITLE "1Q_j_2277-2290_38"
    INDEX 01 00:56:56
  TRACK 39 AUDIO
    TITLE "1Q_j_2277-2290_39"
    INDEX 01 00:56:64
  TRACK 40 AUDIO
    TITLE "1Q_j_2277-2290_40"
    INDEX 01 01:00:56
  TRACK 41 AUDIO
    TITLE "1Q_j_2277-2290_41"
    INDEX 01 01:00:61
  TRACK 42 AUDIO
    TITLE "1Q_j_2277-2290_42"
    INDEX 01 01:06:23
  TRACK 43 AUDIO
    TITLE "1Q_j_2277-2290_43"
    INDEX 01 01:06:68
  TRACK 44 AUDIO
    TITLE "1Q_j_2277-2290_44"
    INDEX 01 01:08:24
  TRACK 45 AUDIO
    TITLE "1Q_j_2277-2290_45"
    INDEX 01 01:08:32
  TRACK 46 AUDIO
    TITLE "1Q_j_2277-2290_46"
    INDEX 01 01:10:56
  TRACK 47 AUDIO
    TITLE "1Q_j_2277-2290_47"
    INDEX 01 01:10:64
  TRACK 48 AUDIO
    TITLE "1Q_j_2277-2290_48"
    INDEX 01 01:16:74
  TRACK 49 AUDIO
    TITLE "1Q_j_2277-2290_49"
    INDEX 01 01:17:44
  TRACK 50 AUDIO
    TITLE "1Q_j_2277-2290_50"
    INDEX 01 01:18:59
  TRACK 51 AUDIO
    TITLE "1Q_j_2277-2290_51"
    INDEX 01 01:18:69
  TRACK 52 AUDIO
    TITLE "1Q_j_2277-2290_52"
    INDEX 01 01:21:70
  TRACK 53 AUDIO
    TITLE "1Q_j_2277-2290_53"
    INDEX 01 01:22:00
  TRACK 54 AUDIO
    TITLE "1Q_j_2277-2290_54"
    INDEX 01 01:27:17
  TRACK 55 AUDIO
    TITLE "1Q_j_2277-2290_55"
    INDEX 01 01:27:62
  TRACK 56 AUDIO
    TITLE "1Q_j_2277-2290_56"
    INDEX 01 01:29:12
  TRACK 57 AUDIO
    TITLE "1Q_j_2277-2290_57"
    INDEX 01 01:29:26
  TRACK 58 AUDIO
    TITLE "1Q_j_2277-2290_58"
    INDEX 01 01:32:03
  TRACK 59 AUDIO
    TITLE "1Q_j_2277-2290_59"
    INDEX 01 01:32:09
  TRACK 60 AUDIO
    TITLE "1Q_j_2277-2290_60"
    INDEX 01 01:38:44
  TRACK 61 AUDIO
    TITLE "1Q_j_2277-2290_61"
    INDEX 01 01:39:15
  TRACK 62 AUDIO
    TITLE "1Q_j_2277-2290_62"
    INDEX 01 01:40:24
  TRACK 63 AUDIO
    TITLE "1Q_j_2277-2290_63"
    INDEX 01 01:40:41
  TRACK 64 AUDIO
    TITLE "1Q_j_2277-2290_64"
    INDEX 01 01:42:68
  TRACK 65 AUDIO
    TITLE "1Q_j_2277-2290_65"
    INDEX 01 01:43:01
  TRACK 66 AUDIO
    TITLE "1Q_j_2277-2290_66"
    INDEX 01 01:47:41
  TRACK 67 AUDIO
    TITLE "1Q_j_2277-2290_67"
    INDEX 01 01:48:13
  TRACK 68 AUDIO
    TITLE "1Q_j_2277-2290_68"
    INDEX 01 01:49:34
  TRACK 69 AUDIO
    TITLE "1Q_j_2277-2290_69"
    INDEX 01 01:49:40
  TRACK 70 AUDIO
    TITLE "1Q_j_2277-2290_70"
    INDEX 01 01:53:32
  TRACK 71 AUDIO
    TITLE "1Q_j_2277-2290_71"
    INDEX 01 01:53:40
  TRACK 72 AUDIO
    TITLE "1Q_j_2277-2290_72"
    INDEX 01 01:59:51
  TRACK 73 AUDIO
    TITLE "1Q_j_2277-2290_73"
    INDEX 01 02:00:24
  TRACK 74 AUDIO
    TITLE "1Q_j_2277-2290_74"
    INDEX 01 02:01:34
  TRACK 75 AUDIO
    TITLE "1Q_j_2277-2290_75"
    INDEX 01 02:01:45
  TRACK 76 AUDIO
    TITLE "1Q_j_2277-2290_76"
    INDEX 01 02:04:60
  TRACK 77 AUDIO
    TITLE "1Q_j_2277-2290_77"
    INDEX 01 02:04:65
  TRACK 78 AUDIO
    TITLE "1Q_j_2277-2290_78"
    INDEX 01 02:09:53
  TRACK 79 AUDIO
    TITLE "1Q_j_2277-2290_79"
    INDEX 01 02:10:23
  TRACK 80 AUDIO
    TITLE "1Q_j_2277-2290_80"
    INDEX 01 02:11:44
  TRACK 81 AUDIO
    TITLE "1Q_j_2277-2290_81"
    INDEX 01 02:11:52
  TRACK 82 AUDIO
    TITLE "1Q_j_2277-2290_82"
    INDEX 01 02:13:51
  TRACK 83 AUDIO
    TITLE "1Q_j_2277-2290_83"
    INDEX 01 02:13:58
  TRACK 84 AUDIO
    TITLE "1Q_j_2277-2290_84"
    INDEX 01 02:19:40
